<svg width="3611" height="1114" xmlns="http://www.w3.org/2000/svg" xmlns:xlink="http://www.w3.org/1999/xlink" xml:space="preserve" overflow="hidden"><defs><linearGradient x1="2074.73" y1="795.17" x2="2325.27" y2="1513.83" gradientUnits="userSpaceOnUse" spreadMethod="reflect" id="fill0"><stop offset="0" stop-color="#C1E5F5" stop-opacity="1"/><stop offset="0.99" stop-color="#46B1E1" stop-opacity="1"/><stop offset="1" stop-color="#46B1E1" stop-opacity="1"/></linearGradient><linearGradient x1="2074.73" y1="795.17" x2="2325.27" y2="1513.83" gradientUnits="userSpaceOnUse" spreadMethod="reflect" id="fill1"><stop offset="0" stop-color="#C1E5F5" stop-opacity="1"/><stop offset="0.99" stop-color="#46B1E1" stop-opacity="1"/><stop offset="1" stop-color="#46B1E1" stop-opacity="1"/></linearGradient><linearGradient x1="2074.73" y1="795.17" x2="2325.27" y2="1513.83" gradientUnits="userSpaceOnUse" spreadMethod="reflect" id="fill2"><stop offset="0" stop-color="#C1E5F5" stop-opacity="1"/><stop offset="0.99" stop-color="#46B1E1" stop-opacity="1"/><stop offset="1" stop-color="#46B1E1" stop-opacity="1"/></linearGradient><linearGradient x1="2074.73" y1="795.17" x2="2325.27" y2="1513.83" gradientUnits="userSpaceOnUse" spreadMethod="reflect" id="fill3"><stop offset="0" stop-color="#C1E5F5" stop-opacity="1"/><stop offset="0.99" stop-color="#46B1E1" stop-opacity="1"/><stop offset="1" stop-color="#46B1E1" stop-opacity="1"/></linearGradient><linearGradient x1="2074.73" y1="795.17" x2="2325.27" y2="1513.83" gradientUnits="userSpaceOnUse" spreadMethod="reflect" id="fill4"><stop offset="0" stop-color="#C1E5F5" stop-opacity="1"/><stop offset="0.99" stop-color="#46B1E1" stop-opacity="1"/><stop offset="1" stop-color="#46B1E1" stop-opacity="1"/></linearGradient><linearGradient x1="2074.73" y1="795.17" x2="2325.27" y2="1513.83" gradientUnits="userSpaceOnUse" spreadMethod="reflect" id="fill5"><stop offset="0" stop-color="#C1E5F5" stop-opacity="1"/><stop offset="0.99" stop-color="#46B1E1" stop-opacity="1"/><stop offset="1" stop-color="#46B1E1" stop-opacity="1"/></linearGradient><linearGradient x1="2074.73" y1="795.17" x2="2325.27" y2="1513.83" gradientUnits="userSpaceOnUse" spreadMethod="reflect" id="fill6"><stop offset="0" stop-color="#C1E5F5" stop-opacity="1"/><stop offset="0.99" stop-color="#46B1E1" stop-opacity="1"/><stop offset="1" stop-color="#46B1E1" stop-opacity="1"/></linearGradient><linearGradient x1="2074.73" y1="795.17" x2="2325.27" y2="1513.83" gradientUnits="userSpaceOnUse" spreadMethod="reflect" id="fill7"><stop offset="0" stop-color="#C1E5F5" stop-opacity="1"/><stop offset="0.99" stop-color="#46B1E1" stop-opacity="1"/><stop offset="1" stop-color="#46B1E1" stop-opacity="1"/></linearGradient><linearGradient x1="2074.73" y1="795.17" x2="2325.27" y2="1513.83" gradientUnits="userSpaceOnUse" spreadMethod="reflect" id="fill8"><stop offset="0" stop-color="#C1E5F5" stop-opacity="1"/><stop offset="0.99" stop-color="#46B1E1" stop-opacity="1"/><stop offset="1" stop-color="#46B1E1" stop-opacity="1"/></linearGradient><linearGradient x1="2074.73" y1="795.17" x2="2325.27" y2="1513.83" gradientUnits="userSpaceOnUse" spreadMethod="reflect" id="fill9"><stop offset="0" stop-color="#C1E5F5" stop-opacity="1"/><stop offset="0.99" stop-color="#46B1E1" stop-opacity="1"/><stop offset="1" stop-color="#46B1E1" stop-opacity="1"/></linearGradient></defs><g transform="translate(-371 -595)"><g><path d="M374 666.779C374 629.898 403.898 600 440.779 600L3914.22 600C3951.1 600 3981 629.898 3981 666.779L3981 1641.2C3981 1678.08 3951.1 1707.98 3914.22 1707.98L440.779 1707.98C403.898 1707.98 374 1678.08 374 1641.2Z" fill="#2F2E2F" fill-rule="evenodd" fill-opacity="1"/><path d="M1622 1154.5C1622 1043.21 1712.44 953 1824 953 1935.56 953 2026 1043.21 2026 1154.5 2026 1265.79 1935.56 1356 1824 1356 1712.44 1356 1622 1265.79 1622 1154.5ZM1673.46 1154.5C1673.46 1237.37 1740.86 1304.55 1824 1304.55 1907.14 1304.55 1974.54 1237.37 1974.54 1154.5 1974.54 1071.63 1907.14 1004.46 1824 1004.46 1740.86 1004.46 1673.46 1071.63 1673.46 1154.5Z" fill="url(#fill0)" fill-rule="evenodd"/><rect x="1777" y="1054" width="203" height="40.0002" fill="url(#fill1)"/><rect x="1822" y="1134" width="176" height="40.9999" fill="url(#fill2)"/><rect x="1867" y="1214" width="131" height="39.9999" fill="url(#fill3)"/><path d="M2162 1072 2200.86 1072 2200.86 1216.28 2287 1216.28 2287 1249 2162 1249 2162 1072Z" fill="url(#fill4)" fill-rule="evenodd"/><path d="M2306 1072 2341 1072 2341 1101 2306 1101 2306 1072Z" fill="url(#fill5)" fill-rule="evenodd"/><path d="M2441.24 1117C2450.64 1117 2458.35 1118.28 2464.37 1120.85 2470.39 1123.42 2475.13 1126.98 2478.6 1131.54 2482.06 1136.1 2484.49 1141.65 2485.9 1148.2 2487.3 1154.74 2488 1161.99 2488 1169.95L2488 1249 2452.87 1249 2452.87 1176.41C2452.87 1165.81 2451.22 1157.89 2447.92 1152.67 2444.62 1147.45 2438.76 1144.84 2430.35 1144.84 2420.78 1144.84 2413.86 1147.7 2409.57 1153.42 2405.28 1159.14 2403.13 1168.54 2403.13 1181.63L2403.13 1249 2368 1249 2368 1120.48 2401.4 1120.48 2401.4 1138.38 2402.14 1138.38C2406.6 1130.92 2412.37 1125.49 2419.46 1122.1 2426.56 1118.7 2433.81 1117 2441.24 1117Z" fill="url(#fill6)" fill-rule="evenodd"/><path d="M2574.5 1117C2585.42 1117 2594.93 1119.11 2603.04 1123.33 2611.14 1127.55 2617.8 1133.21 2623.01 1140.33 2628.22 1147.44 2631.98 1155.55 2634.3 1164.65 2636.61 1173.75 2637.44 1183.26 2636.78 1193.19L2544.23 1193.19C2544.73 1204.6 2547.62 1212.87 2552.92 1218 2558.21 1223.13 2565.82 1225.69 2575.74 1225.69 2582.86 1225.69 2588.98 1223.92 2594.1 1220.36 2599.23 1216.8 2602.37 1213.04 2603.53 1209.07L2634.55 1209.07C2629.58 1224.45 2621.98 1235.46 2611.72 1242.07 2601.46 1248.69 2589.06 1252 2574.5 1252 2564.41 1252 2555.31 1250.39 2547.21 1247.16 2539.1 1243.93 2532.24 1239.34 2526.62 1233.39 2520.99 1227.43 2516.65 1220.32 2513.59 1212.05 2510.53 1203.77 2509 1194.67 2509 1184.75 2509 1175.15 2510.57 1166.22 2513.71 1157.95 2516.86 1149.67 2521.32 1142.52 2527.11 1136.48 2532.9 1130.44 2539.81 1125.69 2547.83 1122.21 2555.85 1118.74 2564.74 1117 2574.5 1117ZM2573.51 1143.55C2567.89 1143.55 2563.21 1144.5 2559.49 1146.41 2555.77 1148.31 2552.79 1150.67 2550.56 1153.48 2548.33 1156.29 2546.75 1159.27 2545.85 1162.41 2544.94 1165.56 2544.4 1168.37 2544.23 1170.85L2601.55 1170.85C2599.89 1161.92 2596.96 1155.13 2592.74 1150.5 2588.52 1145.87 2582.11 1143.55 2573.51 1143.55Z" fill="url(#fill7)" fill-rule="evenodd"/><path d="M2717.24 1117C2723.68 1117 2730.22 1117.46 2736.83 1118.36 2743.44 1119.27 2749.48 1121.05 2754.93 1123.7 2760.39 1126.35 2764.85 1130.03 2768.33 1134.74 2771.8 1139.46 2773.54 1145.7 2773.54 1153.48L2773.54 1220.24C2773.54 1226.03 2773.87 1231.57 2774.53 1236.86 2775.19 1242.16 2776.35 1246.13 2778 1248.77L2742.29 1248.77C2741.62 1246.79 2741.09 1244.76 2740.67 1242.69 2740.26 1240.63 2739.97 1238.52 2739.81 1236.37 2734.18 1242.16 2727.57 1246.21 2719.96 1248.53 2712.36 1250.84 2704.59 1252 2696.65 1252 2690.53 1252 2684.83 1251.26 2679.54 1249.77 2674.25 1248.28 2669.62 1245.96 2665.65 1242.82 2661.68 1239.67 2658.58 1235.7 2656.35 1230.91 2654.12 1226.11 2653 1220.4 2653 1213.78 2653 1206.5 2654.28 1200.51 2656.84 1195.79 2659.41 1191.08 2662.71 1187.31 2666.76 1184.5 2670.82 1181.69 2675.45 1179.58 2680.65 1178.17 2685.86 1176.77 2691.11 1175.65 2696.4 1174.82 2701.69 1173.99 2706.9 1173.33 2712.03 1172.84 2717.15 1172.34 2721.7 1171.6 2725.67 1170.6 2729.64 1169.61 2732.78 1168.16 2735.09 1166.26 2737.41 1164.36 2738.48 1161.59 2738.32 1157.95 2738.32 1154.14 2737.7 1151.12 2736.46 1148.89 2735.22 1146.66 2733.56 1144.92 2731.5 1143.68 2729.43 1142.44 2727.03 1141.61 2724.3 1141.2 2721.58 1140.78 2718.64 1140.58 2715.5 1140.58 2708.56 1140.58 2703.1 1142.06 2699.13 1145.04 2695.16 1148.02 2692.85 1152.98 2692.19 1159.93L2656.97 1159.93C2657.46 1151.66 2659.53 1144.79 2663.17 1139.33 2666.81 1133.88 2671.44 1129.49 2677.06 1126.18 2682.68 1122.87 2689 1120.52 2696.03 1119.11 2703.06 1117.7 2710.13 1117 2717.24 1117ZM2738.32 1185.99C2736.83 1187.31 2734.97 1188.35 2732.74 1189.09 2730.51 1189.84 2728.11 1190.46 2725.54 1190.95 2722.98 1191.45 2720.29 1191.86 2717.48 1192.19 2714.67 1192.52 2711.86 1192.94 2709.05 1193.43 2706.41 1193.93 2703.8 1194.59 2701.24 1195.42 2698.68 1196.25 2696.44 1197.36 2694.54 1198.77 2692.64 1200.18 2691.11 1201.95 2689.95 1204.1 2688.8 1206.26 2688.22 1208.99 2688.22 1212.29 2688.22 1215.44 2688.8 1218.08 2689.95 1220.24 2691.11 1222.39 2692.68 1224.08 2694.67 1225.32 2696.65 1226.56 2698.97 1227.43 2701.61 1227.93 2704.26 1228.42 2706.98 1228.67 2709.8 1228.67 2716.74 1228.67 2722.11 1227.51 2725.92 1225.2 2729.72 1222.88 2732.53 1220.11 2734.35 1216.88 2736.17 1213.66 2737.28 1210.39 2737.7 1207.08 2738.11 1203.77 2738.32 1201.13 2738.32 1199.14L2738.32 1185.99Z" fill="url(#fill8)" fill-rule="evenodd"/><path d="M2306 1121 2341 1121 2341 1249 2306 1249 2306 1121Z" fill="url(#fill9)" fill-rule="evenodd"/></g></g></svg>
